<?xml version="1.0" encoding="UTF-8" standalone="no"?>
<!-- Created with Inkscape (http://www.inkscape.org/) -->

<svg
   width="315.53946mm"
   height="68.17659mm"
   viewBox="0 0 315.53946 68.17659"
   version="1.1"
   id="svg1"
   xml:space="preserve"
   inkscape:version="1.4.2 (ebf0e940d0, 2025-05-08)"
   sodipodi:docname="duhchat.svg"
   xmlns:inkscape="http://www.inkscape.org/namespaces/inkscape"
   xmlns:sodipodi="http://sodipodi.sourceforge.net/DTD/sodipodi-0.dtd"
   xmlns="http://www.w3.org/2000/svg"
   xmlns:svg="http://www.w3.org/2000/svg"><sodipodi:namedview
     id="namedview1"
     pagecolor="#ffffff"
     bordercolor="#000000"
     borderopacity="0.25"
     inkscape:showpageshadow="2"
     inkscape:pageopacity="0.0"
     inkscape:pagecheckerboard="0"
     inkscape:deskcolor="#d1d1d1"
     inkscape:document-units="mm"
     showguides="true"
     inkscape:zoom="0.44409937"
     inkscape:cx="929.97205"
     inkscape:cy="1058.3217"
     inkscape:window-width="1524"
     inkscape:window-height="1605"
     inkscape:window-x="26"
     inkscape:window-y="23"
     inkscape:window-maximized="0"
     inkscape:current-layer="layer1"><sodipodi:guide
       position="278.08232,230.05041"
       orientation="0,-1"
       id="guide3"
       inkscape:locked="false" /></sodipodi:namedview><defs
     id="defs1" /><g
     inkscape:label="Layer 1"
     inkscape:groupmode="layer"
     id="layer1"
     transform="translate(36.458292,199.82605)"><path
       id="path1"
       style="fill:#000000"
       d="m 67.006763,-199.82605 c -0.155824,0 -1.11182,0.68954 -7.100342,5.12166 l -3.936194,2.913 0.166915,15.62798 c 0.09173,8.59535 0.241259,21.84901 0.332279,29.45247 l 0.165365,13.82448 h 5.455998 5.456514 v -15.54427 -15.54427 l 0.741557,-1.5875 c 1.536679,-3.28802 3.656735,-4.62363 7.346838,-4.62763 2.788946,-0.003 4.353955,0.49296 5.672522,1.79834 1.196592,1.18463 1.883305,2.69259 2.225188,4.88652 0.24194,1.55258 0.546103,15.99595 0.548803,26.05475 l 0.001,4.56406 h 5.423958 5.423958 l -0.01085,-3.63802 c -0.0061,-2.00091 -0.116241,-9.47209 -0.244429,-16.60261 -0.259055,-14.41005 -0.394415,-15.70241 -2.01073,-19.15077 -1.675869,-3.57542 -5.017478,-6.18741 -9.405111,-7.35149 -2.438873,-0.64706 -6.967179,-0.57793 -9.230961,0.14056 -1.932642,0.6134 -4.48962,2.06099 -5.700944,3.22771 -0.44349,0.42716 -0.889974,0.7767 -0.992187,0.7767 -0.102211,0 -0.186036,-5.47687 -0.186036,-12.17083 0,-6.69396 -0.06417,-12.17084 -0.143143,-12.17084 z m 101.315777,0 c -0.18892,0 -1.35209,0.83386 -6.95565,4.98523 l -4.07623,3.01945 0.17208,13.92318 c 0.0946,7.65772 0.25097,20.91811 0.34727,29.46746 l 0.17466,15.54427 h 5.40277 5.40226 l -0.0563,-15.27969 c -0.0553,-15.05767 -0.0478,-15.30082 0.5116,-16.75557 1.25411,-3.26167 3.79988,-5.02152 7.54631,-5.21673 1.17992,-0.0615 2.62875,0.0187 3.21944,0.17828 1.5914,0.42982 3.48094,1.79434 4.21163,3.04116 1.38076,2.3561 1.45327,3.31079 1.45727,19.28203 l 0.004,14.75052 h 5.57537 5.57537 l -0.16691,-13.95677 c -0.18679,-15.62808 -0.40332,-19.67483 -1.20717,-22.55573 -2.16023,-7.74197 -9.74655,-12.07245 -18.39577,-10.50117 -2.71335,0.49293 -4.54331,1.36463 -6.79287,3.23546 l -1.78594,1.48518 v -12.32328 c 0,-6.77774 -0.0732,-12.32328 -0.16278,-12.32328 z m -161.0552833,0.0284 -2.5460978,1.77198 c -1.4002659,0.97446 -3.87510627,2.72397 -5.49992273,3.88814 l -2.95434167,2.11666 -0.012402,8.42119 -0.012919,8.4212 -1.0821045,-0.92656 c -3.8105934,-3.26173 -10.173244,-4.66613 -15.666228,-3.45819 -5.561304,1.22296 -10.52917,5.43511 -13.26379,11.24634 -3.624863,7.70304 -3.579821,17.61957 0.114722,25.24394 2.782482,5.74216 8.017568,9.65787 14.473019,10.82466 5.776097,1.044 11.0842494,-0.17816 14.434261,-3.32331 0.7450923,-0.69953 1.418139,-1.2086 1.495516,-1.1312 0.077377,0.0774 0.1873125,0.96785 0.2444295,1.97869 l 0.1038696,1.83762 h 5.4353272 5.4358439 l -0.173116,-4.29948 c -0.095059,-2.36471 -0.2520927,-17.41946 -0.3493327,-33.45532 z m 261.5339033,4.20594 c -0.0516,-3.9e-4 -2.52218,1.8028 -5.4901,4.00751 l -5.39657,4.00854 v 4.06125 4.06125 h -3.47111 -3.4711 l 0.16795,2.84427 c 0.0924,1.56435 0.23777,3.76323 0.32297,4.88653 l 0.15503,2.04276 3.08199,0.0739 3.08198,0.0744 0.14934,13.49375 c 0.12759,11.55889 0.21248,13.71325 0.59377,15.02337 0.95759,3.29035 2.64421,5.49508 5.26117,6.81767 l 15.17479,-8.0946 -3.40858,-0.1204 c -3.41637,-0.12061 -3.82571,-0.1883 -4.63693,-0.76688 -1.69757,-1.21074 -1.70437,-1.26398 -1.83399,-14.51281 l -0.11731,-11.9724 h 5.05861 5.05809 v -4.89479 -4.89479 h -5.09323 -5.09323 v -8.06927 c 0,-4.43791 -0.0419,-8.0689 -0.0935,-8.06928 z m -45.83906,15.19184 c -1.49967,0.0204 -3.08342,0.20154 -4.75371,0.54312 -6.32362,1.29318 -11.90778,6.35109 -14.54227,13.1718 -1.34819,3.49047 -1.66235,5.4254 -1.68465,10.38283 -0.0221,4.91535 0.49902,8.19236 1.81849,11.43961 2.60645,6.41451 7.72772,10.85946 14.40584,12.5026 h 10e-4 c 2.51778,0.61949 6.90618,0.67862 9.2568,0.12454 3.12479,-0.73657 6.4488,-3.02573 8.43721,-5.8105 l 0.56689,-0.79375 0.008,2.97657 0.008,2.97656 h 5.44152 c 0.48511,0 0.91335,0.0102 1.29243,0.0284 h 4.00028 c -0.0523,-3.09883 -0.21535,-13.21302 -0.30076,-23.77478 l -0.18449,-22.82031 h -5.22242 -5.2219 l -0.16433,0.99219 c -0.0902,0.5457 -0.16492,1.63107 -0.16692,2.41174 l -0.003,1.41955 -1.70739,-1.59732 c -3.04413,-2.84764 -6.78555,-4.23407 -11.28458,-4.17287 z m -88.07783,0.22117 c -2.36564,0.11257 -4.67407,0.568 -6.68899,1.37821 -2.67482,1.07555 -4.47837,2.32245 -7.09259,4.90358 -3.80903,3.76083 -5.85705,7.62709 -6.75101,12.74289 -0.51841,2.96666 -0.37038,9.17014 0.28267,11.82925 1.08216,4.40639 3.10299,8.02171 6.22959,11.14558 3.25465,3.25182 6.26326,4.87249 10.83758,5.83788 6.98668,1.47451 13.65072,-0.27228 18.73581,-4.91081 1.94964,-1.77843 4.15565,-4.60737 3.83697,-4.92063 -0.11469,-0.11274 -2.02931,-1.34459 -4.25452,-2.7373 l -4.04574,-2.53214 -1.77922,1.80402 c -2.85461,2.89454 -5.72668,3.96145 -9.30228,3.45509 -3.64842,-0.51668 -6.43871,-2.62773 -8.08374,-6.11591 -1.32026,-2.79953 -1.73258,-4.6783 -1.72858,-7.87084 0.009,-6.29322 2.49123,-10.88231 7.12463,-13.17128 1.83003,-0.9041 2.17511,-0.98379 4.25969,-0.98341 2.01594,3.7e-4 2.45887,0.0942 3.98167,0.84491 1.73458,0.85506 2.86425,1.77363 4.43125,3.60133 l 0.86351,1.00666 4.08916,-2.55437 4.08916,-2.55385 -0.58808,-1.07642 c -1.01908,-1.86494 -5.12201,-5.76274 -7.24142,-6.87916 -3.16165,-1.66545 -7.26278,-2.43089 -11.20552,-2.24328 z m -121.44478,0.72554 v 16.51941 c 0,18.5629 0.02047,18.80903 1.847432,22.53557 2.248333,4.58602 6.792277,7.56514 13.101526,8.58966 2.214683,0.35963 7.443053,0.0777 9.789583,-0.52814 5.297817,-1.36772 8.911947,-4.09484 10.954371,-8.26667 2.062054,-4.21192 1.983579,-3.37834 2.079459,-22.11493 l 0.08527,-16.7349 h -5.518526 -5.518526 l -0.0708,15.90032 c -0.07727,17.46576 -0.09251,17.6483 -1.667598,19.44223 -0.453596,0.51661 -1.43074,1.25919 -2.171444,1.65002 -1.2138,0.64042 -1.62143,0.71056 -4.12533,0.71056 -2.406671,0 -2.93732,-0.0833 -3.96875,-0.62426 -1.54264,-0.80903 -2.555174,-1.76461 -3.264917,-3.07991 -0.560824,-1.03932 -0.574201,-1.33874 -0.736906,-16.66875 -0.09112,-8.58573 -0.180417,-15.99737 -0.198437,-16.47031 l -0.03307,-0.8599 H 18.73116 Z m -27.636556,8.77414 c 5.1679363,-0.19188 9.5088738,3.63609 10.8329303,9.88674 0.5045672,2.38196 0.5062417,6.66404 0.00413,9.28832 -0.8068907,4.21724 -3.4523249,8.1002 -6.4130453,9.41286 -1.433124,0.63538 -4.381537,0.86194 -5.989815,0.45992 -3.276549,-0.81903 -6.788802,-3.7342 -8.344194,-6.92567 -1.342669,-2.75499 -1.695977,-4.64944 -1.543058,-8.27443 0.312252,-7.40202 3.474134,-12.04951 9.194271,-13.51494 0.765664,-0.19616 1.5205,-0.30539 2.258777,-0.3328 z m 239.304776,0.34003 c 2.95889,0.0595 5.83408,1.16628 7.71787,3.30213 2.40001,2.72112 3.39498,6.01952 3.38998,11.24014 -0.005,5.09538 -0.76147,7.4183 -3.31711,10.1787 -1.59274,1.72035 -3.29752,2.74278 -5.55212,3.33003 -4.03413,1.05076 -8.04986,-0.0654 -10.75335,-2.98948 -2.60748,-2.8202 -3.91397,-6.45619 -3.91397,-10.89236 0,-4.74112 1.47192,-8.65286 4.20956,-11.18743 2.21791,-2.05339 5.26025,-3.04121 8.21914,-2.98173 z M 99.95824,-145.0573 v 6.08542 6.08542 h 6.08542 6.08541 v -6.08542 -6.08542 h -6.08541 z" /></g></svg>
